# xmcd CD database file
#
# Track frame offsets:
#	150
#	2493
#	27391
#	49371
#	86416
#	107681
#	127312
#	158260
#	204627
#	228243
#	249302
#	276012
#	301100
#
# Disc length: 4257 seconds
#
# Revision: 0
# Processed by: cddbd v1.5.1PL2 Copyright (c) Steve Scherf et al.
# Submitted via: CDex 1.51
#
DISCID=9d109f0d
DTITLE=Barry Mc Cabe - Absolutely Live! Vol.1
DYEAR=2003
DGENRE=Blues
TTITLE0=Intro
TTITLE1=Someone I used to know
TTITLE2=Never say die
TTITLE3=Full moon on Main St.
TTITLE4=Freddie wants a Cadillac
TTITLE5=Talk to your daugther
TTITLE6=Sweet little angel
TTITLE7=Night time people
TTITLE8=Tempted
TTITLE9=Stay with me
TTITLE10=Alberta
TTITLE11=Walkin' Blues
TTITLE12=Nobody's girl
EXTD=YEAR: 2003
EXTT0=
EXTT1=
EXTT2=
EXTT3=
EXTT4=
EXTT5=
EXTT6=
EXTT7=
EXTT8=
EXTT9=
EXTT10=
EXTT11=
EXTT12=
PLAYORDER=
